<?xml version="1.0" encoding="utf-8"?><!-- Uploaded to: SVG Repo, www.svgrepo.com, Generator: SVG Repo Mixer Tools -->
<svg width="800px" height="800px" viewBox="0 0 24 24" xmlns="http://www.w3.org/2000/svg">
<path d="M15.2595 11.6735C16.0369 11.8912 16.7133 12.3343 17.2886 13.0029C17.8484 13.7026 18.1283 14.5811 18.1283 15.6385C18.1283 16.9135 17.6851 17.9631 16.7988 18.7872C15.897 19.5957 14.7541 20 13.3703 20H6V4H13.1137C14.5131 4 15.6171 4.37318 16.4257 5.11953C17.2342 5.88144 17.6385 6.84548 17.6385 8.01166C17.6385 9.02235 17.3897 9.82313 16.8921 10.414C16.379 11.0204 15.8348 11.4169 15.2595 11.6035V11.6735ZM14.4198 8.57143C14.4198 7.20311 13.6657 6.51895 12.1574 6.51895H9.12536V10.6939H12.2041C12.9193 10.6939 13.4713 10.5073 13.8601 10.1341C14.2332 9.76093 14.4198 9.24004 14.4198 8.57143ZM12.5773 17.5044C13.3236 17.5044 13.8989 17.31 14.3032 16.9213C14.723 16.517 14.9329 15.9572 14.9329 15.242C14.9329 14.5112 14.7153 13.9514 14.2799 13.5627C13.8445 13.174 13.2381 12.9796 12.4606 12.9796H9.12536V17.5044H12.5773Z" fill="#8DA399"/>
</svg>
